<?xml version="1.0" encoding="UTF-8"?>
<svg xmlns="http://www.w3.org/2000/svg" viewBox="0 0 512 512" width="512" height="512">
  <title>myBeez-ai — favicon</title>
  <rect x="0" y="0" width="512" height="512" rx="112" fill="#1A1A1A"/>
  <g transform="translate(256, 256) scale(2.4)">
    <polygon points="-32,16 -22,11 -12,16 -12,27 -22,32 -32,27" fill="#FFC93C" stroke="#FFC93C" stroke-width="2" stroke-linejoin="round"/>
    <polygon points="-10,16 0,11 10,16 10,27 0,32 -10,27" fill="#F39C12" stroke="#F39C12" stroke-width="2" stroke-linejoin="round"/>
    <polygon points="12,16 22,11 32,16 32,27 22,32 12,27" fill="#FFC93C" stroke="#FFC93C" stroke-width="2" stroke-linejoin="round"/>
    <polygon points="-21,-5 -11,-10 -1,-5 -1,5 -11,10 -21,5" fill="#FFE082" stroke="#FFE082" stroke-width="2" stroke-linejoin="round"/>
    <polygon points="1,-5 11,-10 21,-5 21,5 11,10 1,5" fill="#FFE082" stroke="#FFE082" stroke-width="2" stroke-linejoin="round"/>
    <polygon points="-10,-26 0,-32 10,-26 10,-16 0,-10 -10,-16" fill="#FAFAFA" stroke="#FAFAFA" stroke-width="2" stroke-linejoin="round"/>
    <circle cx="0" cy="-21" r="3" fill="#FFC93C"/>
  </g>
</svg>
