<?xml version="1.0" encoding="UTF-8"?>
<svg xmlns="http://www.w3.org/2000/svg" viewBox="0 0 240 240" width="240" height="240">
  <title>myBeez-ai — pictogramme</title>
  <g transform="translate(120, 120)">
    <polygon points="-72,36 -50,24 -28,36 -28,60 -50,72 -72,60" fill="#FFC93C" stroke="#1A1A1A" stroke-width="3" stroke-linejoin="round"/>
    <polygon points="-22,36 0,24 22,36 22,60 0,72 -22,60" fill="#F39C12" stroke="#1A1A1A" stroke-width="3" stroke-linejoin="round"/>
    <polygon points="28,36 50,24 72,36 72,60 50,72 28,60" fill="#FFC93C" stroke="#1A1A1A" stroke-width="3" stroke-linejoin="round"/>
    <polygon points="-47,-12 -25,-24 -3,-12 -3,12 -25,24 -47,12" fill="#FFE082" stroke="#1A1A1A" stroke-width="3" stroke-linejoin="round"/>
    <polygon points="3,-12 25,-24 47,-12 47,12 25,24 3,12" fill="#FFE082" stroke="#1A1A1A" stroke-width="3" stroke-linejoin="round"/>
    <polygon points="-22,-60 0,-72 22,-60 22,-36 0,-24 -22,-36" fill="#1A1A1A" stroke="#1A1A1A" stroke-width="3" stroke-linejoin="round"/>
    <circle cx="0" cy="-48" r="5" fill="#FFC93C"/>
  </g>
</svg>
