<?xml version="1.0" encoding="UTF-8"?>
<svg xmlns="http://www.w3.org/2000/svg" viewBox="20 25 380 75" width="380" height="75">
  <title>myBeez-ai — version horizontale</title>
  <g transform="translate(60, 60)">
    <polygon points="-32,16 -22,11 -12,16 -12,27 -22,32 -32,27" fill="#FFC93C" stroke="#1A1A1A" stroke-width="2" stroke-linejoin="round"/>
    <polygon points="-10,16 0,11 10,16 10,27 0,32 -10,27" fill="#F39C12" stroke="#1A1A1A" stroke-width="2" stroke-linejoin="round"/>
    <polygon points="12,16 22,11 32,16 32,27 22,32 12,27" fill="#FFC93C" stroke="#1A1A1A" stroke-width="2" stroke-linejoin="round"/>
    <polygon points="-21,-5 -11,-10 -1,-5 -1,5 -11,10 -21,5" fill="#FFE082" stroke="#1A1A1A" stroke-width="2" stroke-linejoin="round"/>
    <polygon points="1,-5 11,-10 21,-5 21,5 11,10 1,5" fill="#FFE082" stroke="#1A1A1A" stroke-width="2" stroke-linejoin="round"/>
    <polygon points="-10,-26 0,-32 10,-26 10,-16 0,-10 -10,-16" fill="#1A1A1A" stroke="#1A1A1A" stroke-width="2" stroke-linejoin="round"/>
    <circle cx="0" cy="-21" r="2.5" fill="#FFC93C"/>
  </g>
  <text x="120" y="65" font-family="'Helvetica Neue', Arial, sans-serif" font-size="36" font-weight="500" letter-spacing="-1"><tspan fill="#1A1A1A">my</tspan><tspan fill="#F39C12">Beez</tspan><tspan fill="#1A1A1A">-ai</tspan></text>
  <text x="120" y="88" font-family="'Helvetica Neue', Arial, sans-serif" font-size="10" fill="#888888" letter-spacing="2.5">PLATEFORME BUSINESS INTELLIGENT</text>
</svg>
