<?xml version="1.0" encoding="UTF-8"?>
<svg xmlns="http://www.w3.org/2000/svg" viewBox="0 0 520 480" width="520" height="480">
  <title>myBeez-ai — logo principal</title>
  <g transform="translate(260, 180)">
    <polygon points="-72,36 -50,24 -28,36 -28,60 -50,72 -72,60" fill="#FFC93C" stroke="#1A1A1A" stroke-width="3" stroke-linejoin="round"/>
    <polygon points="-22,36 0,24 22,36 22,60 0,72 -22,60" fill="#F39C12" stroke="#1A1A1A" stroke-width="3" stroke-linejoin="round"/>
    <polygon points="28,36 50,24 72,36 72,60 50,72 28,60" fill="#FFC93C" stroke="#1A1A1A" stroke-width="3" stroke-linejoin="round"/>
    <polygon points="-47,-12 -25,-24 -3,-12 -3,12 -25,24 -47,12" fill="#FFE082" stroke="#1A1A1A" stroke-width="3" stroke-linejoin="round"/>
    <polygon points="3,-12 25,-24 47,-12 47,12 25,24 3,12" fill="#FFE082" stroke="#1A1A1A" stroke-width="3" stroke-linejoin="round"/>
    <polygon points="-22,-60 0,-72 22,-60 22,-36 0,-24 -22,-36" fill="#1A1A1A" stroke="#1A1A1A" stroke-width="3" stroke-linejoin="round"/>
    <circle cx="0" cy="-48" r="5" fill="#FFC93C"/>
  </g>
  <text x="260" y="320" font-family="'Helvetica Neue', Arial, sans-serif" font-size="50" font-weight="500" text-anchor="middle" letter-spacing="-1"><tspan fill="#1A1A1A">my</tspan><tspan fill="#F39C12">Beez</tspan><tspan fill="#1A1A1A">-ai</tspan></text>
  <text x="260" y="360" font-family="'Helvetica Neue', Arial, sans-serif" font-size="12" text-anchor="middle" fill="#888888" letter-spacing="3">PLATEFORME BUSINESS INTELLIGENT</text>
</svg>
